<svg xmlns="http://www.w3.org/2000/svg" viewBox="0 0 100 100"><defs><style>.cls-1{fill:#e0edf3;stroke:#fff;stroke-miterlimit:10;stroke-width:4px;}.cls-2{fill:#dc6c5f;}.cls-3{fill:#2f373a;}.cls-4{fill:#fcbe63;}.cls-5{fill:#fdc168;}.cls-6{fill:#6f5750;}.cls-7{fill:#dca871;}.cls-8{fill:#5b5248;}.cls-9{fill:#b75a52;}.cls-10{fill:#c05f55;}.cls-11{fill:#faebe6;}.cls-12{fill:#b75b52;}.cls-13{fill:#bc5d55;}.cls-14{fill:#b65a52;}.cls-15{fill:#bd5d54;}.cls-16{fill:#b05750;}.cls-17{fill:#c46157;}.cls-18{fill:#ba5c53;}.cls-19{fill:#fdfdfd;}.cls-20{fill:#db6c5f;}.cls-21{fill:#a9724e;}.cls-22{fill:#ac7651;}.cls-23{fill:#494642;}.cls-24{fill:#252626;}.cls-25{fill:#222;}.cls-26{fill:#61574b;}.cls-27{fill:#32393c;}.cls-28{fill:#343a3c;}.cls-29{fill:#3e3b3d;}</style></defs><title>Artboard 1</title><g id="bg"><circle class="cls-1" cx="52.32" cy="51.65" r="44.32"/></g><g id="pirate"><path class="cls-2" d="M49.17,79.75c-.11,1.39.83,2.46,1.52,4.32-7-1.82-9.59-6.69-11.13-12.56-1.65,1.56-.55,3.75-1.65,5.9-4.16-3.95-4.13-9.32-5.69-14.63l-.85,4.91c-3.08-3.26-2.9-6.87-3.23-10.32.29-.85,1.06-1.27,1.64-1.87,2.36-2.45,2.59-4.59.74-7.39a7.62,7.62,0,0,1-1.42-2.48,7.56,7.56,0,0,1,2.57-6.48l.24-.09a1.49,1.49,0,0,1,1.53-.19,3.72,3.72,0,0,1,1.44,1.55,6.69,6.69,0,0,1,.28,5.26c-.43,1.47-.19,2.4,1.6,2.24,4.34-.4,7.94,1.65,11.54,3.6,2.56,1.38,5,1.72,7.36-.3,3.18-1.24,6.14-3,9.82-2.84,2.14.09,4-1,3.44-3.82a4.32,4.32,0,0,1,1-4,1.17,1.17,0,0,1,1.45,0l.37,1.3c1,2.19,1,4.89,3,6.6A24.35,24.35,0,0,0,77,51a4.4,4.4,0,0,1,1.05,2.59l.53,1.33c.44,1.08,1.59,2.24.81,3.33-1,1.41-2.38-.3-4-.09.86,2.49,2.57,4.25,4.08,6.14.6.76,2.2,1.39,1.15,2.57-.86,1-2.26.54-3.35-.12-.82-.5-1.58-1.1-2.59-1.81.16,2.46,1.69,4,3,5.65.84,1.09,2.42,2.41,1.25,3.67s-2.91.24-4.26-.61c-.56-.35-1.11-.74-2.23-1.49A12.58,12.58,0,0,0,75,77.43c.54.77,1.49,1.6.75,2.54s-1.85.62-2.73.35a34,34,0,0,1-3.87-1.72,6.34,6.34,0,0,0,1.54,3.9c1.56,2.31.49,2.91-1.77,3-3.58.17-5.65-2.15-7.91-4.86,0,2.47,1,4,2.11,5.61.45.66,1.42,1.25.88,2.17s-1.77.7-2.64.49A15.42,15.42,0,0,1,49.85,79a2.67,2.67,0,0,1-.76-3.11A8.73,8.73,0,0,0,49.17,79.75Z"/><path class="cls-3" d="M33.38,39.33,31.92,39c-3-1.3-6.08-.29-9.11-.56-1.06-.1-2.6.84-3.09-.81a4.14,4.14,0,0,1,1-4c1.87-2.1,5.16-2.71,8.49-1.5,4.6-12.6,16.2-19.76,29.65-18.3,9.15,1,14.41,7.31,14.62,17.73,2.18-.66,4.42-1.15,6.54-.17a6,6,0,0,1,2.53,3c.92,1.8,1,2.66-1.54,2.84-3.1.22-6.27-.57-9.3.61-1.46,1.11-3.2,1-4.86,1-6.14,0-12.29.09-18.42,0C43.41,38.87,38.36,38.07,33.38,39.33Z"/><path class="cls-4" d="M29.62,45.69c4.75,5.24,4.27,9.05-1.47,11.67-3.07.15-6-.4-6.95-3.73-.87-2.9-.59-5.76,2.66-7.34,1-.24,1.19.47,1.37,1.19a6,6,0,0,1-.66,2.36c-.46,1.29-.62,2.61.57,3.58,1.34,1.09,2.4.21,3.37-.74,1.3-1.08.91-2.05-.2-3a5.06,5.06,0,0,1-.93-1.3C27,46.55,26.43,44.58,29.62,45.69Z"/><path class="cls-5" d="M75.29,48.4l.09-2.23c4,1.46,4.65,3.32,2.7,7.42l-1.41-2.13C76.27,50.41,75.43,49.56,75.29,48.4Z"/><path class="cls-6" d="M68,40.61c.61-1.87,2.2-1.4,3.56-1.48l-.17,1.42-1.34.2A1.48,1.48,0,0,1,68,40.61Z"/><path class="cls-7" d="M23.86,46.29a2.29,2.29,0,0,1,1,1.8c1,1,2.1,1.48,3.43.56-.56-1.44-1.5-3,1.33-3l2.07-6.56C25.81,39.22,24.37,40.54,23.86,46.29Zm51.52-.13c-.39-2.11-1-4.06-3.58-4.32-.78,3,.36,5.39,2.59,7.36a1.45,1.45,0,0,0,1.35-.88A2.33,2.33,0,0,0,75.38,46.16ZM55.79,51.46h0Zm12.92-10.8a16.54,16.54,0,0,0,2.88-1.52l.12-1.32H48c-4.37.81-8.91-.37-13.47.71A3.8,3.8,0,0,0,35.82,40a2,2,0,0,0-1.66.69c1,1.86.6,3.74-.05,5.55S34.58,49.25,36,49c5.13-1,8.9,1.83,13,4,2.59,1.37,5.62.7,6.81-1.5h0c1.27-.3,2.56-.55,3.81-.92,1.56-.46,2.89-1.63,4.7-1.31,3.8.67,5.74-1.19,5.4-5a17.12,17.12,0,0,1,.39-3.52ZM49.12,44c-3.72,3.48-7.2,2.91-9.65-1.42a6.07,6.07,0,0,0-1.33-1.91c4.43.09,8.68,1.46,13,2A6,6,0,0,0,49.12,44Zm4.81-1.52-.22.31a2.4,2.4,0,0,0-.32-.24L54,42.4ZM58.85,42l-.1-.12.23,0Zm2.72,3.71c-1.15,0-1.56-.71-1.83-1.59,1.62,1.87,2.51,1.7,3.77-.53C63.31,44.65,63,45.64,61.57,45.69Zm2.74-4.52a.69.69,0,0,0-.18-.12A3.59,3.59,0,0,1,64.6,41,1.37,1.37,0,0,0,64.31,41.17Z"/><path class="cls-8" d="M37.65,40.71l-3.48-.07-.79-1.31c-.52-1.32,0-1.66,1.32-1.64,4.44.08,8.87.09,13.31.13-4.1,1-8.32.14-12.9.81L37.73,40A.48.48,0,0,1,37.65,40.71Z"/><path class="cls-9" d="M70,58.71a4.8,4.8,0,0,1-3.06-2.86C68.71,56.33,69.33,57.54,70,58.71Z"/><path class="cls-10" d="M60.25,68.42c-.69.05-.72-.48-.78-.93s0-1,.53-1.14.71.46.78.9A1,1,0,0,1,60.25,68.42Z"/><path class="cls-11" d="M75.29,48.4a2.43,2.43,0,0,1,1.38,3.06l-2.29-2.25Z"/><path class="cls-12" d="M71.89,53.87a2.4,2.4,0,0,1-2.7-1.49A3.35,3.35,0,0,1,71.89,53.87Z"/><path class="cls-10" d="M43,59.35a2.67,2.67,0,0,1-.89.41c-.63,0-.73-.49-.6-.94.07-.23.44-.37.68-.55Z"/><path class="cls-13" d="M65.48,61.74a4.12,4.12,0,0,1,.8.9.85.85,0,0,1-.33.76c-.59.13-.74-.42-.94-.82S64.84,61.93,65.48,61.74Z"/><path class="cls-14" d="M34.38,56.62c-.24.32-.44.81-.79,1S33,57.4,33.18,57a6.4,6.4,0,0,1,.82-1Z"/><path class="cls-15" d="M61,57.15c.32-.41.49-.82.71-.85.6-.08.66.5.79.9,0,.15-.13.38-.21.57Z"/><path class="cls-16" d="M46.16,67.36c-.51-.56-.94-1.12-.57-1.86C46.86,65.84,46.08,66.76,46.16,67.36Z"/><path class="cls-17" d="M69.38,71.67c-.15-.49-.37-.82-.29-1s.46-.41.7-.61c.11.28.34.57.3.82S69.73,71.29,69.38,71.67Z"/><path class="cls-18" d="M62.95,76.55c-.29.21-.55.44-.59.41a3.11,3.11,0,0,1-1-1c-.2-.47.29-.61.59-.42A5.72,5.72,0,0,1,62.95,76.55Z"/><path class="cls-19" d="M54.54,17.35c3.91,0,7.45,2.18,8.35,5.07.79,2.51-.87,7.64-3.65,9-1.43.72-2.85,1.11-4,2.42A1.75,1.75,0,0,1,53,33.76c-2-2.3-4.53-4-6-6.76C44.31,22.29,48.24,17.3,54.54,17.35Z"/><path class="cls-20" d="M29,53c-.88-1.26.31-2.5,0-3.75C30.66,50.53,31.54,51.79,29,53Z"/><path class="cls-21" d="M55,47.07c1.36,1.27.52,2.92.75,4.38C54.55,50.16,55.23,48.55,55,47.07Z"/><path class="cls-22" d="M54.19,44.94c.23-.28.27-1.57.82-.27a6.87,6.87,0,0,1,.07,2.47C54.21,46.63,54.38,45.71,54.19,44.94Z"/><path class="cls-23" d="M58.67,42.76c.11,0,.3-.1.33-.06,1.94,2.21,3.58,2.45,4.79-.66,0-.08.44,0,.67,0,.3,2.38-.16,4.68-2.88,4.82C59.26,47,58.55,44.92,58.67,42.76Z"/><path class="cls-24" d="M59.42,24.62a1.84,1.84,0,0,1-2.17,1.85c-1.14-.05-1.6-.81-1.59-1.92a1.7,1.7,0,0,1,1.72-1.85A1.92,1.92,0,0,1,59.42,24.62Z"/><path class="cls-25" d="M53.84,24.27c-.13,1.09-.64,1.92-2,1.87a1.71,1.71,0,0,1-1.77-1.78c-.06-1.26.69-1.9,2-1.92S53.69,23.15,53.84,24.27Z"/><path class="cls-26" d="M55.81,41.43l0,.74a2.19,2.19,0,0,1-2.26.48L52.82,42A3.72,3.72,0,0,1,55.81,41.43Z"/><path class="cls-23" d="M64.47,41.43c-.59-.13-1.26-.12-1.52-.84,1.14-.45,2.28-1.07,3.36.1Z"/><path class="cls-27" d="M60.94,41.34l-2.27.87-2.87,0a.45.45,0,0,1-.16-.5q.09-.24.18-.24C57.53,41.7,59.21,40.05,60.94,41.34Z"/><path class="cls-28" d="M37.65,40.71l.08-.73c5.17-.37,10.06,1.31,15.09,2,.76-.35.85,0,.71.65l.12.22c-1.17-.06-2.21-.18-3.22.9C45.23,49.29,41,48.43,38,41.34A7.1,7.1,0,0,0,37.65,40.71Z"/><path class="cls-29" d="M58.55,58.48l-11.9,2.71c3.28-3.53,7.24-4.45,11.62-3.78Z"/></g></svg>